PathFileType	4	(X/Y/Z)	C:\Users\Basilio\Documents\Thesis Gigler\squatting_fais\c3dfiles\019\SLS_front_pre5\markers_experimental.trc
DataRate	CameraRate	NumFrames	NumMarkers	Units	OrigDataRate	OrigDataStartFrame	OrigNumFrames
200.000000	200.000000	4	59	mm	200.000000	574	1531
Frame#	Time	FHD			LBHD			RBHD			C7			T10			CLAV			LSHO			LUUPA			LMUPA			LDUPA			LLEP			LMEP			LRAD			LUL			LRFIN			RSHO			RUPA1			RMUPA			RDUPA			RLEP			RMEP			RRAD			RUL			RUFIN			LASI			RASI			USACR			LSACR			RSACR			LTHI1			LTHI2			LTHI3			LTHI4			LLFC			LTIB1			LTIB2			LTIB3			LTIB4			LLMAL			LMMAL			LHEE			LMT1			LMT2			LMT5			RTHI3			RTHI4			RLFC			RTIB1			RTIB2			RTIB3			RTIB4			RLMAL			RMMAL			RHEE			RMT1			RMT2			RMT5			RTHI			RTHI2			
		X1	Y1	Z1	X2	Y2	Z2	X3	Y3	Z3	X4	Y4	Z4	X5	Y5	Z5	X6	Y6	Z6	X7	Y7	Z7	X8	Y8	Z8	X9	Y9	Z9	X10	Y10	Z10	X11	Y11	Z11	X12	Y12	Z12	X13	Y13	Z13	X14	Y14	Z14	X15	Y15	Z15	X16	Y16	Z16	X17	Y17	Z17	X18	Y18	Z18	X19	Y19	Z19	X20	Y20	Z20	X21	Y21	Z21	X22	Y22	Z22	X23	Y23	Z23	X24	Y24	Z24	X25	Y25	Z25	X26	Y26	Z26	X27	Y27	Z27	X28	Y28	Z28	X29	Y29	Z29	X30	Y30	Z30	X31	Y31	Z31	X32	Y32	Z32	X33	Y33	Z33	X34	Y34	Z34	X35	Y35	Z35	X36	Y36	Z36	X37	Y37	Z37	X38	Y38	Z38	X39	Y39	Z39	X40	Y40	Z40	X41	Y41	Z41	X42	Y42	Z42	X43	Y43	Z43	X44	Y44	Z44	X45	Y45	Z45	X46	Y46	Z46	X47	Y47	Z47	X48	Y48	Z48	X49	Y49	Z49	X50	Y50	Z50	X51	Y51	Z51	X52	Y52	Z52	X53	Y53	Z53	X54	Y54	Z54	X55	Y55	Z55	X56	Y56	Z56	X57	Y57	Z57	X58	Y58	Z58	X59	Y59	Z59	

575	2.87	-228.0933074951172	1625.239379882813	-622.4247436523439	-362.2997131347657	1602.5205078125	-761.5336914062501	-361.9482421875001	1593.732421875	-621.9712524414064	-403.9762573242189	1438.205322265625	-687.0873413085939	-504.8572692871095	1165.856201171875	-696.7292480468751	-237.2486572265626	1381.951049804688	-762.4650878906251	-323.9415588378907	1442.666748046875	-824.3586425781252	-206.4707031250001	1410.993530273438	-886.014587402344	-181.4903411865235	1398.189086914063	-845.732360839844	-141.0002899169922	1402.477172851563	-889.8489990234377	-72.88518524169923	1372.6953125	-927.0858154296877	-79.0836868286133	1313.9453125	-919.4291992187502	176.0827331542969	1346.479736328125	-846.9978027343752	173.1082458496094	1353.894653320313	-915.0065917968752	244.4878540039063	1361.53564453125	-840.8244628906252	-310.9078063964844	1426.659790039063	-573.4052124023439	-195.6694946289063	1354.650512695313	-477.9072265625001	-170.3819885253907	1380.651977539063	-512.7384033203126	-127.7961578369141	1350.012817382813	-481.7948303222657	-51.59387588500978	1338.947265625	-495.1911010742189	-63.32820129394533	1283.018188476563	-505.0342407226564	181.1991424560547	1339.994995117188	-595.3803100585939	196.9380035400391	1346.744140625	-529.3835449218751	270.0806884765626	1348.5439453125	-600.5086059570314	-403.5024414062501	960.3010864257815	-836.7933349609377	-378.8185119628907	928.363464355469	-634.2529907226564	-537.9188842773439	1028.136108398438	-711.3822631835939	-551.5079345703126	1000.017028808594	-740.3830566406251	-543.9477539062501	994.4863281250002	-684.4912109375001	-334.4885559082032	767.6420898437501	-928.3568115234377	-252.8907775878907	744.1807250976564	-920.492370605469	-227.2607727050782	778.7156372070315	-900.5947265625002	-230.6166076660157	687.1818847656251	-916.0266113281252	-167.2931823730469	613.9899291992189	-903.7879638671877	-51.85240173339845	520.5080566406251	-873.9023437500002	-76.71498107910158	455.9983215332032	-928.6656494140627	-43.7972526550293	470.9875793457032	-904.9511718750002	-3.414175748825074	400.6607666015626	-873.0037231445315	5.132008075714112	257.3728332519532	-902.6749267578127	18.4842529296875	269.2927856445313	-820.2628173828127	-42.2807846069336	205.3161773681641	-851.3630981445315	161.5342559814453	238.2483062744141	-823.0749511718752	169.1344757080078	236.4466857910157	-862.1071777343752	136.4727478027344	198.8193511962891	-913.0926513671877	-296.6409912109376	732.5773925781251	-602.1783447265626	-298.9326171875001	633.9646606445314	-584.9106445312501	-266.6384887695313	484.3952941894532	-633.1296997070314	-254.818832397461	311.6551513671876	-711.1583251953126	-322.1529235839844	239.0399780273438	-661.2179565429689	-291.0852355957032	233.7254333496094	-696.3547973632814	-311.5298156738282	201.1234436035157	-740.9809570312501	-387.9545898437501	127.7316055297852	-701.5115356445314	-371.3341064453126	136.6993865966797	-776.9614257812502	-455.7406616210939	106.2742233276367	-755.8920288085939	-256.4306030273438	54.30066680908205	-776.166931152344	-249.4092254638672	53.63528060913087	-734.4000244140626	-294.5557250976563	50.00924301147462	-677.2586059570314	-375.8803100585938	740.0770263671876	-569.0612182617189	-316.1051940917969	712.5817260742189	-580.8581542968751	
576	2.875	-227.6100158691407	1624.277221679688	-622.8439941406251	-361.5817565917969	1601.273803710938	-761.6062622070314	-361.5956420898438	1592.503173828125	-622.0956420898439	-403.620574951172	1437.218139648438	-687.2132568359376	-504.9890136718751	1165.040771484375	-696.6401977539064	-236.8926239013672	1380.939208984375	-762.5656127929689	-323.5088806152344	1441.713745117188	-824.3259887695315	-206.0492553710938	1410.024169921875	-886.0268554687502	-180.9864501953125	1397.276489257813	-845.6296386718752	-140.5974731445313	1401.451782226563	-889.8709106445315	-72.52652740478517	1371.733642578125	-927.0876464843752	-78.7521209716797	1312.949829101563	-919.496276855469	176.5783843994141	1345.180297851563	-847.0292968750002	173.8269805908203	1352.545288085938	-915.224548339844	244.8052673339844	1360.424560546875	-841.1384887695315	-310.6464843750001	1425.18701171875	-573.2343139648439	-195.3966979980469	1353.630737304688	-477.8990173339845	-170.0775146484375	1379.6943359375	-512.8685302734376	-127.4209976196289	1349.047485351563	-481.8713989257814	-51.2861785888672	1338.047241210938	-495.1676635742189	-63.00652313232423	1282.057373046875	-505.2281799316407	181.4689025878907	1338.884765625	-595.6528930664064	197.2721252441407	1345.387329101563	-529.4462890625001	268.2879333496094	1347.879272460938	-600.5739746093751	-404.180877685547	959.5168457031252	-836.779724121094	-379.1502990722657	927.4455566406252	-634.3185424804689	-538.3125610351564	1027.260375976563	-711.3394165039064	-551.9482421875001	999.0740966796877	-740.3686523437501	-544.5745239257814	993.7080078125002	-684.3393554687501	-334.8776855468751	766.9173583984376	-928.117126464844	-253.3606872558594	743.4399414062501	-920.1278076171877	-227.7089538574219	778.0816040039065	-900.3279418945315	-230.9993286132813	686.4590454101564	-915.6614990234377	-167.7403411865235	613.3061523437501	-903.4289550781252	-52.27870559692384	519.8563232421876	-873.512634277344	-77.19234466552736	455.1380004882814	-928.1658325195315	-44.18842697143555	470.1663818359376	-904.3762817382815	-4.275428295135499	399.8516540527345	-872.0777587890627	4.666263103485108	256.5991821289063	-901.9721679687502	18.02595520019532	268.5019531250001	-819.6257934570315	-42.57673645019532	204.4526824951172	-850.7475585937502	161.3298797607422	239.1094818115235	-821.8597412109377	168.4037475585938	235.9637298583985	-861.2934570312502	136.0511932373047	198.0634460449219	-912.2558593750002	-296.7556152343751	732.0499877929689	-602.1023559570314	-298.9120178222657	633.6044921875001	-584.9860839843751	-266.0582580566407	484.0116271972657	-633.0178833007814	-254.4100952148438	311.3410644531251	-711.2059936523439	-321.9130554199219	238.9081115722657	-661.2081298828126	-290.7331848144532	233.5748138427735	-696.3768310546876	-311.3988647460938	200.9237518310547	-740.9971313476564	-387.922576904297	127.7550659179688	-701.4898071289064	-371.2243652343751	136.622314453125	-777.0152587890627	-455.843231201172	106.3003463745117	-755.9042968750001	-256.7873229980469	54.58415603637697	-776.1970825195315	-249.4228057861329	53.67710113525392	-734.2814941406251	-294.5292358398438	49.97288894653322	-677.2947998046876	-376.0943603515626	739.2833862304689	-569.0671997070314	-316.1597595214844	711.9271850585939	-580.7027587890626	
577	2.88	-227.0938568115235	1623.010009765625	-622.9119873046876	-362.0445556640626	1600.308837890625	-761.7321777343751	-361.1464843750001	1591.864379882813	-622.0219116210939	-403.2590637207032	1436.2353515625	-687.2116088867189	-505.2271423339845	1164.262573242188	-696.5590820312501	-241.7760772705079	1376.858154296875	-755.6437377929689	-323.6984863281251	1440.912963867188	-824.4597167968752	-205.5986633300782	1409.065795898438	-885.9778442382815	-180.7256317138672	1396.158325195313	-845.6633911132815	-140.256576538086	1400.448608398438	-889.7971191406252	-72.19039916992189	1370.702392578125	-927.1306152343752	-78.44266510009767	1311.917846679688	-919.5745849609377	176.9684600830078	1343.947021484375	-847.4241333007815	174.2354125976563	1351.271362304688	-915.4536132812502	245.1634521484376	1359.087768554688	-841.3763427734377	-310.5452575683594	1424.166259765625	-573.6633911132814	-195.1113891601563	1352.638305664063	-478.049041748047	-169.4339752197266	1378.380737304688	-512.9045410156251	-127.1092681884766	1348.055419921875	-481.9686279296876	-50.98984909057619	1336.941040039063	-495.3040161132814	-62.69657516479494	1281.029052734375	-505.0156250000001	181.7701721191407	1337.753173828125	-595.6932983398439	197.6177215576172	1344.226806640625	-529.2506713867189	267.6083984375001	1346.906127929688	-600.8811645507814	-404.7715148925782	958.7166137695315	-836.8121337890627	-379.5921325683594	926.483337402344	-634.3983764648439	-539.0051879882814	1026.414428710938	-711.0896606445314	-552.2125854492189	998.2388305664065	-740.2259521484376	-545.0659790039064	992.7432861328127	-684.3340454101564	-335.4373474121094	766.3391723632814	-927.9397583007815	-253.4298553466797	743.1612548828126	-920.399597167969	-228.1316375732422	777.3191528320315	-899.9634399414065	-231.3838500976563	685.7822265625001	-915.3660278320315	-168.0381317138672	612.4845581054689	-902.9938964843752	-52.70431518554689	519.0849609375001	-872.985290527344	-77.63032531738283	454.3269653320314	-927.655700683594	-44.57381439208985	469.3858337402345	-903.8958129882815	-4.054846763610841	399.4050292968751	-871.7550048828127	3.932798862457276	256.0360412597657	-901.5486450195315	17.43010330200196	267.8457641601563	-818.9473876953127	-42.93593978881837	203.7471160888672	-849.9509887695315	160.9396362304688	237.6370086669922	-821.1298828125002	168.4131927490235	235.0758972167969	-860.4463500976565	135.5496215820313	197.2033843994141	-911.1171875000002	-296.9019470214844	731.6119995117189	-601.9642944335939	-298.7277832031251	633.1555786132814	-584.9024658203126	-265.7073059082032	483.6748962402345	-632.9048461914064	-254.0369110107422	311.1503295898438	-711.1669921875001	-321.6348571777344	238.7024841308594	-661.2821044921876	-290.5167846679688	233.3631286621094	-696.3986206054689	-311.2609558105469	200.7589874267579	-741.0168457031251	-387.8486633300782	127.7460861206055	-701.5306396484376	-371.2742004394532	136.6393127441407	-776.9942626953127	-455.8758850097657	106.3341522216797	-755.8880004882814	-256.4275817871094	54.27697372436525	-776.1599121093752	-249.421615600586	53.64419555664064	-734.4059448242189	-294.4958801269532	49.94371795654298	-677.2859497070314	-376.2600097656251	738.4902343750001	-568.9912109375001	-316.3287048339844	711.3263549804689	-580.7991333007814	
578	2.885	-226.6446380615235	1621.889526367188	-623.1212158203126	-361.6843566894532	1599.1357421875	-761.7584838867189	-360.5739440917969	1590.755004882813	-622.0831909179689	-403.0069580078126	1435.278198242188	-687.2581176757814	-505.3849487304689	1163.410400390625	-696.4447021484376	-236.3399505615235	1378.79248046875	-762.8515014648439	-323.5887451171876	1439.968994140625	-824.5129394531252	-205.1649017333985	1408.123168945313	-885.8616943359377	-180.3809967041016	1395.104125976563	-845.6707153320315	-139.761703491211	1399.491943359375	-889.6956787109377	-71.77077484130861	1369.731323242188	-927.0864257812502	-78.03999328613283	1310.851318359375	-919.599792480469	177.4247436523438	1342.681274414063	-847.7043457031252	174.6753692626953	1349.983276367188	-915.667663574219	245.6068115234376	1357.784912109375	-841.748229980469	-310.1495971679688	1423.480224609375	-573.8743896484376	-194.7873840332032	1351.759399414063	-478.1421813964845	-169.2181091308594	1377.44287109375	-512.9592285156251	-126.6861953735352	1347.016723632813	-481.9743957519532	-50.72041320800783	1335.79736328125	-495.3959045410157	-62.37144851684572	1279.947143554688	-505.2196044921876	182.1017761230469	1336.6103515625	-595.5882568359376	197.7435913085938	1343.462280273438	-529.3380737304689	269.8989562988282	1345.595336914063	-600.5230102539064	-405.1612548828126	957.6502075195315	-836.750915527344	-380.0891113281251	925.3835449218752	-634.4381103515626	-539.4955444335939	1025.489990234375	-711.1343994140626	-552.6052856445314	997.438171386719	-740.1715087890626	-545.3908081054689	991.8572998046877	-684.2940673828126	-335.7603759765626	765.5773315429689	-927.6992187500002	-254.0980377197266	742.1727294921876	-919.7333984375002	-228.5352020263672	776.6333007812502	-899.6704101562502	-231.6965484619141	685.1209106445314	-915.1029052734377	-168.3052215576172	611.7136840820314	-902.6259765625002	-52.92419052124025	518.2771606445314	-872.463562011719	-77.9632034301758	453.5103149414064	-927.1662597656252	-44.96349716186524	468.5965881347657	-903.3765869140627	-4.594464302062989	398.6957397460939	-871.1480712890627	3.574288368225099	255.4222717285157	-900.6210937500002	17.01118659973145	267.1924743652344	-818.1760864257815	-43.36944961547852	202.9496307373047	-849.2714843750002	160.6967468261719	237.408676147461	-820.3021240234377	167.9724578857422	234.3353881835938	-859.5410156250002	135.4135894775391	196.6373443603516	-910.639343261719	-296.9667053222657	731.2160644531251	-601.8925781250001	-298.6224060058594	632.6259155273439	-584.8531494140626	-265.1504516601563	483.4951477050782	-632.9981079101564	-253.7123413085938	310.8488159179688	-711.2125244140626	-321.3182067871094	238.5319366455079	-661.3267822265626	-290.2940368652344	233.1299285888672	-696.4887695312501	-311.1026611328126	200.5674285888672	-741.0349731445314	-387.7869873046876	127.7017288208008	-701.5502319335939	-371.2653503417969	136.5585479736328	-777.0642089843752	-455.7632141113282	106.30419921875	-755.9382324218751	-256.4186401367188	54.252742767334	-776.2084960937502	-249.4065856933594	53.66683959960939	-734.2702026367189	-294.5079956054688	49.99349975585939	-677.3294677734376	-376.5192260742188	737.9246215820314	-568.9882202148439	-316.4408874511719	710.7765502929689	-580.8161621093751	
